<svg width="254" height="238" viewBox="0 0 254 238" fill="none" xmlns="http://www.w3.org/2000/svg">
<rect x="50.5" y="39.5" width="177" height="177" rx="88.5" stroke="#CC2F35" stroke-width="3"/>
<path d="M139 238C152.807 238 164 226.807 164 213C164 199.193 152.807 188 139 188C125.193 188 114 199.193 114 213C114 226.807 125.193 238 139 238Z" fill="#A2171C"/>
<path d="M134 195.904C134 195.904 134.999 197.836 136.424 199.91C136.385 200.228 138.106 199.573 140.787 199.91C140.787 199.91 140.787 199.457 143 195.904" fill="white"/>
<path d="M134 195.904C134 195.904 134.999 197.836 136.424 199.91C136.385 200.228 138.106 199.573 140.787 199.91C140.787 199.91 140.787 199.457 143 195.904C138.924 194.266 135.302 195.222 134 195.904Z" fill="white"/>
<path d="M136.42 199.807C135.423 203.804 131.813 219.806 131 223.836C131 223.836 134.685 228.768 139.702 232C139.702 232 143.807 227.479 147 223.799C147 223.799 143.51 214.2 140.74 199.807" fill="white"/>
<path d="M142.593 202L133.387 205.13M143.096 205.522L132.021 209.435M144.39 209.043L131.014 213.348M145.685 212.565L130.51 217.764M146.62 216.478L129 222.348M148.634 220L132.021 225.478M150 223.522L133.387 229" stroke="#A2171C" stroke-width="2"/>
<path d="M40.5 126.334C40.5 71.749 84.749 27.5 139.334 27.5" stroke="#CC2F35" stroke-width="3" stroke-miterlimit="10" stroke-linecap="round"/>
<path d="M241.834 129C241.834 156.864 230.304 182.034 211.755 200" stroke="#CC2F35" stroke-width="3" stroke-miterlimit="10" stroke-linecap="round"/>
<path d="M241.502 114.931C240.61 107.465 238.871 100.103 236.306 93" stroke="#CC2F35" stroke-width="3" stroke-miterlimit="10" stroke-linecap="round"/>
<path opacity="0.2" d="M109.668 234.258C50.2039 215.313 17.2219 152.178 35.9994 93.2407" stroke="#CC2F35" stroke-width="3" stroke-miterlimit="10" stroke-linecap="round"/>
<path opacity="0.2" d="M173.996 19.2791C204.284 28.9289 227.688 50.0638 240.852 76.2635" stroke="#CC2F35" stroke-width="3" stroke-miterlimit="10" stroke-linecap="round" stroke-dasharray="5 5"/>
<path opacity="0.2" d="M160.946 16.3681C152.516 14.7516 143.906 14.0917 135.292 14.4195" stroke="#CC2F35" stroke-width="3" stroke-miterlimit="10" stroke-linecap="round"/>
</svg>
