<svg width="254" height="238" viewBox="0 0 254 238" fill="none" xmlns="http://www.w3.org/2000/svg">
<rect x="24.5" y="36.5" width="177" height="177" rx="88.5" stroke="#CC2F35" stroke-width="3"/>
<path d="M212.673 123.334C212.673 68.749 168.424 24.5 113.839 24.5" stroke="#CC2F35" stroke-width="3" stroke-miterlimit="10" stroke-linecap="round"/>
<path d="M11.3393 126C11.3394 153.864 22.8694 179.034 41.4185 197" stroke="#CC2F35" stroke-width="3" stroke-miterlimit="10" stroke-linecap="round"/>
<path d="M11.6711 111.931C12.5636 104.465 14.3026 97.1027 16.8669 90" stroke="#CC2F35" stroke-width="3" stroke-miterlimit="10" stroke-linecap="round"/>
<path opacity="0.2" d="M143.506 231.258C202.969 212.313 235.951 149.178 217.174 90.2407" stroke="#CC2F35" stroke-width="3" stroke-miterlimit="10" stroke-linecap="round" stroke-dasharray="5 5"/>
<path opacity="0.2" d="M79.1776 16.2791C48.8897 25.9289 25.4858 47.0638 12.3213 73.2635" stroke="#CC2F35" stroke-width="3" stroke-miterlimit="10" stroke-linecap="round"/>
<path opacity="0.2" d="M92.2275 13.3681C100.657 11.7516 109.268 11.0917 117.881 11.4195" stroke="#CC2F35" stroke-width="3" stroke-miterlimit="10" stroke-linecap="round"/>
<path d="M112 238C125.807 238 137 226.807 137 213C137 199.193 125.807 188 112 188C98.1929 188 87 199.193 87 213C87 226.807 98.1929 238 112 238Z" fill="#A2171C"/>
<path d="M117.625 221.75C121.422 221.75 124.5 218.672 124.5 214.875C124.5 211.078 121.422 208 117.625 208C113.828 208 110.75 211.078 110.75 214.875C110.75 218.672 113.828 221.75 117.625 221.75Z" stroke="white" stroke-width="2" stroke-miterlimit="10"/>
<rect x="97" y="201.75" width="20" height="12.5" rx="0.8125" fill="white"/>
<path d="M110.75 214.875C110.75 211.078 113.828 208 117.625 208" stroke="#A2171C" stroke-width="2" stroke-miterlimit="10"/>
<mask id="path-12-inside-1" fill="white">
<rect x="103.25" y="199.25" width="7.5" height="6.25" rx="0.761719"/>
</mask>
<rect x="103.25" y="199.25" width="7.5" height="6.25" rx="0.761719" stroke="white" stroke-width="1.625" mask="url(#path-12-inside-1)"/>
<path d="M94.5 204.25H108.25H122" stroke="#A2171C" stroke-width="1.52344"/>
<rect x="104.5" y="204.25" width="5" height="2.5" fill="#A2171C"/>
<path d="M122 220.5L125.125 224.875" stroke="white" stroke-width="2" stroke-miterlimit="10" stroke-linecap="round"/>
</svg>
